<?xml version="1.0" encoding="UTF-8"?>
<svg width="700pt" height="700pt" version="1.1" viewBox="0 0 700 700" xmlns="http://www.w3.org/2000/svg">
 <path d="m583.33 140h-93.332v-46.668c0-6.1875-2.457-12.121-6.8359-16.496-4.375-4.3789-10.309-6.8359-16.496-6.8359h-233.34c-6.1875 0-12.121 2.457-16.496 6.8359-4.3789 4.375-6.8359 10.309-6.8359 16.496v46.668h-93.332c-6.1914 0-12.125 2.457-16.5 6.8359-4.375 4.375-6.8359 10.309-6.8359 16.496v280c0 6.1914 2.4609 12.125 6.8359 16.5s10.309 6.8359 16.5 6.8359h186.67-0.003907c6.1914 0 12.125-2.4609 16.5-6.8359s6.8359-10.309 6.8359-16.5v-46.664h46.668v46.668l-0.003907-0.003907c0 6.1914 2.4609 12.125 6.8359 16.5s10.309 6.8359 16.5 6.8359h186.67-0.003907c6.1914 0 12.125-2.4609 16.5-6.8359s6.8359-10.309 6.8359-16.5v-280c0-6.1875-2.4609-12.121-6.8359-16.496-4.375-4.3789-10.309-6.8359-16.5-6.8359zm-326.66-23.332h186.67l-0.003907 233.33h-186.66zm23.332 303.33h-140v-233.33h70v186.67-0.003907c0 6.1914 2.457 12.125 6.8359 16.5 4.375 4.375 10.309 6.8359 16.496 6.8359h46.668zm280 0h-140v-23.332h46.668c6.1875 0 12.121-2.4609 16.496-6.8359 4.3789-4.375 6.8359-10.309 6.8359-16.5v-186.66h70z"/>
</svg>
